<?xml version="1.0" encoding="UTF-8" standalone="no"?>
<svg xmlns:dc="http://purl.org/dc/elements/1.1/" xmlns:cc="http://creativecommons.org/ns#" xmlns:rdf="http://www.w3.org/1999/02/22-rdf-syntax-ns#" xmlns:svg="http://www.w3.org/2000/svg" xmlns="http://www.w3.org/2000/svg" xmlns:sodipodi="http://sodipodi.sourceforge.net/DTD/sodipodi-0.dtd" xmlns:inkscape="http://www.inkscape.org/namespaces/inkscape" id="Ebene_1" data-name="Ebene 1" viewBox="0 0 1399.73 1399.78" version="1.1" sodipodi:docname="sticker_v3_WhiteOutline_WEB.svg" inkscape:version="0.92.4 (5da689c313, 2019-01-14)">
  <metadata id="metadata47">
    <rdf:RDF>
      <cc:Work rdf:about="">
        <dc:format>image/svg+xml</dc:format>
        <dc:type rdf:resource="http://purl.org/dc/dcmitype/StillImage"/>
        <dc:title>sticker_v3_WhiteOutline</dc:title>
      </cc:Work>
    </rdf:RDF>
  </metadata>
  <sodipodi:namedview pagecolor="#ffffff" bordercolor="#666666" borderopacity="1" objecttolerance="10" gridtolerance="10" guidetolerance="10" inkscape:pageopacity="0" inkscape:pageshadow="2" inkscape:window-width="3840" inkscape:window-height="2080" id="namedview45" showgrid="false" inkscape:zoom="1.3487833" inkscape:cx="795.42584" inkscape:cy="756.98131" inkscape:window-x="3829" inkscape:window-y="-11" inkscape:window-maximized="1" inkscape:current-layer="Ebene_1"/>
  <defs id="defs4">
    <style id="style2">.cls-1{fill:#fff;}.cls-2{fill:#e6007e;}</style>
  </defs>
  <title id="title6">sticker_v3_WhiteOutline</title>
  <path class="cls-1" d="M724.94,24a112.56,112.56,0,0,0-80.12,33.19L54.69,647.32a113.29,113.29,0,0,0,0,160.23l583,583.05a113.31,113.31,0,0,0,160.23,0l590.13-590.14a113.41,113.41,0,0,0,0-160.23l-583-583A112.56,112.56,0,0,0,724.94,24Z" transform="translate(-21.5 -24)" id="path8"/>
  <path class="cls-2" d="M950,464.55q-41.88,0-60.71,37.22t-18.83,109q0,75.32,19.72,111.32t59.82,36q41.87,0,61-37.22t19.16-110.1q0-71.79-19.16-109T950,464.55Z" transform="translate(-21.5 -24)" id="path10" style="fill:#ff0a87;fill-opacity:1"/>
  <path class="cls-2" d="M686.44,464.55q-41.88,0-60.7,37.22t-18.84,109q0,75.32,19.72,111.32t59.82,36q41.88,0,61-37.22t19.16-110.1q0-71.79-19.16-109T686.44,464.55Z" transform="translate(-21.5 -24)" id="path12" style="fill:#ff0a87;fill-opacity:1"/>
  <path class="cls-2" d="M464.51,862.55q-25.74,0-37.8,14.15t-12.06,46.13v4.34q0,34.55,11.58,49.31T464,991.24q22.64,0,35-16.79t12.4-47Q511.38,862.55,464.51,862.55Z" transform="translate(-21.5 -24)" id="path14" style="fill:#ff0a87;fill-opacity:1"/>
  <path class="cls-2" d="M986.48,321.33H463.34L96,688.67a54.83,54.83,0,0,0,0,77.54l360.25,360.24H979.39l367.34-367.34a54.89,54.89,0,0,0,0-77.54ZM388,515.51l88-65.8H495v323.9H473.27V537.67q0-32.13,2.66-66.69-3.33,3.31-6.87,6.42T400.6,531.24ZM509.15,983.19q-16.47,20-44.92,20-32.91,0-48.53-23.87h-.5l-2.57,21H401.25V981.21h0v-128h11.38l2.57,21H416q15.17-23.84,48.5-23.84,29.79,0,45.45,19.58t15.65,57Q525.61,963.2,509.15,983.19ZM648.78,865.12a78.72,78.72,0,0,0-19.1-2.3q-18.84,0-30.89,16t-12.06,40.37v81.29H573.32V853.2H584.7l1.35,26.55h1q9.07-16.26,19.37-22.83t24.93-6.57a115.67,115.67,0,0,1,20.05,1.9Zm131,135.34H674.68v-8.54l87.38-126.8h-81V853.2h98.49v8.53l-87.92,126.8h88.19ZM765.2,737.06q-26,41-78.76,41-50.73,0-77.1-42.2T583,610.78q0-84.63,25.58-125.4t77.88-40.77q51.18,0,78,42.21t26.81,124Q791.23,696.07,765.2,737.06ZM939,1000.46H925.74V905q0-22.22-9.34-32.31t-29-10.09q-26.42,0-38.67,13.34t-12.27,43.28v81.29H823.05V853.2h11.39L837,873.38h.81q14.35-23,51.07-23,50.13,0,50.13,53.79Zm115.73-.54a71.39,71.39,0,0,1-22.49,3.25q-19.51,0-28.79-10.43T994.19,960v-95.1H972.38V857l21.81-6.1,6.77-33.32h6.91V853.2h43.22v11.65h-43.22v93.21q0,16.92,6,25.06t18.7,8.12a100.41,100.41,0,0,0,22.22-2.16Zm-26-262.86q-26,41-78.76,41-50.75,0-77.1-42.2T846.5,610.78q0-84.63,25.59-125.4T950,444.61q51.16,0,78,42.21t26.81,124Q1054.76,696.07,1028.73,737.06Z" transform="translate(-21.5 -24)" id="path34" style="fill:#ff0a87;fill-opacity:1"/>
  <path class="cls-2" d="M1382.46,645.87l-583-583a105.33,105.33,0,0,0-149,0L60.32,653a105.33,105.33,0,0,0,0,149l583,583a105.33,105.33,0,0,0,149,0l590.14-590.14A105.45,105.45,0,0,0,1382.46,645.87ZM1363.64,776,773.5,1366.16a78.74,78.74,0,0,1-111.37,0l-583-583a78.76,78.76,0,0,1,0-111.37L669.23,81.62a78.74,78.74,0,0,1,111.37,0l583,583A78.76,78.76,0,0,1,1363.64,776Z" transform="translate(-21.5 -24)" id="path38" style="fill:#ff0a87;fill-opacity:1"/>
</svg>